<?xml version="1.0" encoding="UTF-8"?>
<svg xmlns="http://www.w3.org/2000/svg" style="display: none;">

	<symbol id="att-add" viewBox="0 0 32 32">
		<title>att-add</title>
		<path d="M27.5,16A2.5,2.5,0,0,1,25,18.5H18.5V25a2.5,2.5,0,0,1-5,0V18.5H7a2.5,2.5,0,0,1,0-5h6.5V7a2.5,2.5,0,0,1,5,0v6.5H25A2.5,2.5,0,0,1,27.5,16Z"/>
	</symbol>

	<symbol id="att-badge" viewBox="0 0 32 32">
		<title>att-badge</title>
		<path d="M26.1,9h0a2.25,2.25,0,0,1-.63-1.8A1.92,1.92,0,0,0,24.2,5.15a2.29,2.29,0,0,1-1.3-1.39,1.92,1.92,0,0,0-1.49-1.37,1.83,1.83,0,0,0-.52,0,1.52,1.52,0,0,1-.47,0,2.36,2.36,0,0,1-1.28-.71A1.79,1.79,0,0,0,18,1a1.91,1.91,0,0,0-1.29.2,2.24,2.24,0,0,1-1.45.19,1.49,1.49,0,0,1-.45-.15,1.7,1.7,0,0,0-.48-.16,1.93,1.93,0,0,0-1.9.72,2.21,2.21,0,0,1-1.72.81A1.94,1.94,0,0,0,8.8,4.07,2.3,2.3,0,0,1,7.56,5.52,1.92,1.92,0,0,0,6.39,7.66a2.29,2.29,0,0,1-.55,1.82,1.91,1.91,0,0,0-.2,2.43,2.29,2.29,0,0,1,.24,1.89,1.91,1.91,0,0,0,.8,2.3,2.3,2.3,0,0,1,1,1.63A1.93,1.93,0,0,0,9.2,19.49l.15,0h0l.16,0a1.27,1.27,0,0,1,.18.06l.1,0h0L7.88,29.92l-.07.39a.4.4,0,0,0,.14.37.39.39,0,0,0,.39,0l.54-.26A.37.37,0,0,0,9,30.39H9l1.11-.54L11.87,29l0,0,2.24,2a.38.38,0,0,0,.25.09l.12,0a.39.39,0,0,0,.25-.29L16,24.26l1.15,6.18.05.3a.41.41,0,0,0,.25.29.38.38,0,0,0,.37-.07L20,29l0,0,1.76.84.52.26.6.28.08,0h0l.56.27a.39.39,0,0,0,.39,0,.36.36,0,0,0,.14-.37l-2-10.68.14-.11a1.87,1.87,0,0,1,.75-.31,2,2,0,0,0,1.6-1.85,2.29,2.29,0,0,1,.91-1.67,1.92,1.92,0,0,0,.7-2.34,2.3,2.3,0,0,1,.16-1.9A1.93,1.93,0,0,0,26.1,9ZM14.15,30l-1.93-1.69a.38.38,0,0,0-.41-.06l-.27.13-1.74.84-.46.22-.62.31h0l1.79-9.65a1.7,1.7,0,0,1,.43.52,1.93,1.93,0,0,0,1.75,1,1.75,1.75,0,0,0,.51-.08,1.59,1.59,0,0,1,.47-.08,2.22,2.22,0,0,1,1.4.43,1.64,1.64,0,0,0,.55.3Zm8.53-.52-.53-.26-1.75-.84-.27-.13a.38.38,0,0,0-.41.06L17.8,30l-1.43-7.66a1.85,1.85,0,0,0,1.11-.46,2.26,2.26,0,0,1,1.38-.49,2.09,2.09,0,0,1,.46.05,1.81,1.81,0,0,0,.52.07,1.94,1.94,0,0,0,1.69-1.09l1.73,9.35ZM25.78,11a3,3,0,0,0-.21,2.61,1.17,1.17,0,0,1-.43,1.4,3,3,0,0,0-1.26,2.31,1.15,1.15,0,0,1-.95,1.1,2.58,2.58,0,0,0-1.06.44l-.27.21a.32.32,0,0,0-.19.17,2.48,2.48,0,0,0-.56.77,1.17,1.17,0,0,1-1,.65.7.7,0,0,1-.29,0,2.56,2.56,0,0,0-.69-.08,3,3,0,0,0-1.87.69,1.15,1.15,0,0,1-.72.27,1.12,1.12,0,0,1-.74-.24,3,3,0,0,0-1.83-.6h-.06a2.76,2.76,0,0,0-.68.11.93.93,0,0,1-.29.05,1.15,1.15,0,0,1-1.06-.61,3,3,0,0,0-1.17-1.16l-.35-.17-.14,0-.25-.08-.25,0H9.35a1.19,1.19,0,0,1-.93-1.06,3,3,0,0,0-1.36-2.24,1.17,1.17,0,0,1-.48-1.38,3,3,0,0,0-.33-2.6A1.16,1.16,0,0,1,6.37,10,3,3,0,0,0,7.12,7.5a1.16,1.16,0,0,1,.71-1.28,3,3,0,0,0,1.71-2,1.19,1.19,0,0,1,1.16-.89,3,3,0,0,0,2.37-1.12,1.17,1.17,0,0,1,1.15-.42.78.78,0,0,1,.27.09,2.44,2.44,0,0,0,.66.22,3,3,0,0,0,2-.28,1.15,1.15,0,0,1,.78-.11,1.1,1.1,0,0,1,.66.38,3,3,0,0,0,1.73,1,2.4,2.4,0,0,0,.7,0,1,1,0,0,1,.29,0,1.19,1.19,0,0,1,.91.82A3,3,0,0,0,24,5.86a1.16,1.16,0,0,1,.76,1.25,3,3,0,0,0,.87,2.48A1.17,1.17,0,0,1,25.78,11ZM16,18.47h-.11a.37.37,0,0,1-.37-.38.38.38,0,0,1,.37-.37H16a6.27,6.27,0,1,0-5-2.51.38.38,0,0,1-.08.53.37.37,0,0,1-.52-.08A7,7,0,1,1,16,18.47Z"/>
	</symbol>

	<symbol id="att-bars" viewBox="0 0 32 32">
		<title>att-bars</title>
		<path d="M25.63,9.62H6.37a.37.37,0,1,1,0-.74H25.63a.37.37,0,1,1,0,.74ZM26,16a.38.38,0,0,0-.38-.38H6.37a.38.38,0,1,0,0,.76H25.63A.38.38,0,0,0,26,16Zm0,6.75a.37.37,0,0,0-.38-.37H6.37a.37.37,0,0,0-.38.37.38.38,0,0,0,.38.38H25.63A.38.38,0,0,0,26,22.75Z"/>
	</symbol>

	<symbol id="att-bookmark" viewBox="0 0 32 32">
		<title>att-bookmark</title>
		<path d="M27.17,27.36a.37.37,0,0,1-.37.38H11A.38.38,0,0,1,11,27H26.8A.37.37,0,0,1,27.17,27.36Zm0-2.14a.37.37,0,0,1-.37.38H11a.38.38,0,0,1,0-.75H26.8A.37.37,0,0,1,27.17,25.22Zm-.37-23a.38.38,0,0,0-.38.38V22.73H8.8A4,4,0,0,0,5.58,24.2V5.2c0-1.37,1.32-2.32,3.22-2.32h8.68v12a.65.65,0,0,0,.29.54.66.66,0,0,0,.64,0l2.38-1.29,2.41,1.3a.56.56,0,0,0,.25.05.63.63,0,0,0,.65-.64V1.28a.74.74,0,0,0-.74-.73H18.22a.74.74,0,0,0-.74.73v.85H8.8c-2.34,0-4,1.26-4,3.07V26.3h0a3.79,3.79,0,0,0,4,3.58h18a.38.38,0,0,0,0-.75H8.8A3.06,3.06,0,0,1,5.57,26.3h0A3,3,0,0,1,8.8,23.48h18a.37.37,0,0,0,.37-.38V2.55A.37.37,0,0,0,26.8,2.17ZM18.23,1.3l5.12,0V14.67l-2.56-1.39-2.56,1.39Z"/>
	</symbol>

	<symbol id="att-chevron-down" viewBox="0 0 32 32">
		<title>att-chevron-down</title>
		<path d="M16,21.82a1.82,1.82,0,0,1-1.28-.53L4.25,10.82a.37.37,0,0,1,.53-.53L15.25,20.76a1.09,1.09,0,0,0,1.5,0L27.22,10.29a.37.37,0,0,1,.53.53L17.28,21.29A1.82,1.82,0,0,1,16,21.82Z"/>
	</symbol>

	<symbol id="att-close" viewBox="0 0 32 32">
		<title>att-close</title>
		<path d="M25.52,22.68a2,2,0,1,1-2.83,2.83L16,18.82l-6.69,6.7a2,2,0,0,1-2.83,0,2,2,0,0,1,0-2.83L13.18,16,6.49,9.31A2,2,0,0,1,9.32,6.48L16,13.17l6.69-6.69a2,2,0,1,1,2.83,2.83L18.83,16Z"/>
	</symbol>

	<symbol id="att-collapse" viewBox="0 0 32 32">
		<title>att-collapse</title>
		<path d="M28.47,13a.38.38,0,0,1-.38.38h-8A1.46,1.46,0,0,1,18.61,12V4.09a.38.38,0,0,1,.75,0V12a.46.46,0,0,0,0,.21L27.63,4a.39.39,0,0,1,.53,0,.37.37,0,0,1,0,.53L20,12.65h8.12A.38.38,0,0,1,28.47,13ZM11.94,18.47H4.09a.38.38,0,0,0-.38.38.37.37,0,0,0,.38.37h7.85a.51.51,0,0,1,.17,0L3.75,27.84a.38.38,0,0,0,.27.64.36.36,0,0,0,.27-.12l8.34-8.58a.77.77,0,0,1,0,.15v8.24a.38.38,0,0,0,.75,0V19.93A1.46,1.46,0,0,0,11.94,18.47Z"/>
	</symbol>

	<symbol id="att-delete" viewBox="0 0 32 32">
		<title>att-delete</title>
		<path d="M27.16,7.58H20V5.09A1.88,1.88,0,0,0,18.1,3.22H13.9A1.88,1.88,0,0,0,12,5.09V7.58H4.84A.37.37,0,0,0,4.46,8a.38.38,0,0,0,.38.38H6.63l.54,18.34c0,1.89.34,2.36,2.37,2.36h13c2.14,0,2.38-.76,2.38-2.36l.53-18.34h1.69A.38.38,0,0,0,27.54,8,.37.37,0,0,0,27.16,7.58ZM12.77,5.09A1.13,1.13,0,0,1,13.9,4h4.2a1.13,1.13,0,0,1,1.13,1.12V7.58H12.77ZM24.19,26.66c0,1.31,0,1.62-1.63,1.62h-13C8,28.28,8,28.16,7.92,26.65L7.38,8.33H24.72Zm-10.72-3a.37.37,0,0,1-.37-.37V12.46a.37.37,0,0,1,.37-.37.38.38,0,0,1,.38.37V23.27A.38.38,0,0,1,13.47,23.64Zm5.26,0a.38.38,0,0,1-.38-.37V12.46a.38.38,0,0,1,.75,0V23.27A.38.38,0,0,1,18.73,23.64Z"/>
	</symbol>

	<symbol id="att-edit" viewBox="0 0 32 32">
		<title>att-edit</title>
		<path d="M28.72,5,27,3.28a3.18,3.18,0,0,0-2.17-.93,2.89,2.89,0,0,0-2.15.85l-.93.92h0l-.93.92L6.8,19.1a4.8,4.8,0,0,0-.32.39.33.33,0,0,0-.12.17,4,4,0,0,0-.39.68L2.48,28.66a.7.7,0,0,0,.08.78A.56.56,0,0,0,3,29.6a.92.92,0,0,0,.37-.08L11.66,26a4.57,4.57,0,0,0,1.24-.83L27,11.15,28.8,9.3A3.07,3.07,0,0,0,28.72,5ZM3.27,28.73,4.42,26,6,27.58ZM26.42,10.62,12.37,24.67a3.7,3.7,0,0,1-1,.66L6.78,27.26l-2-2,1.93-4.59a2.65,2.65,0,0,1,.25-.46,5.27,5.27,0,0,1,3.22,1.67,6.81,6.81,0,0,1,1,1.34.39.39,0,0,0,.33.19.35.35,0,0,0,.19-.06.36.36,0,0,0,.13-.51,7.39,7.39,0,0,0-1.16-1.49,6.41,6.41,0,0,0-3.19-1.82L21.38,5.58,22,4.92l5,5Zm1.85-1.86-.66.67-5-5,.66-.66a2.12,2.12,0,0,1,1.6-.63,2.44,2.44,0,0,1,1.66.71L28.19,5.5A2.31,2.31,0,0,1,28.27,8.76Z"/>
	</symbol>

	<symbol id="att-ellipsis-h" viewBox="0 0 32 32">
		<title>att-ellipsis-h</title>
		<path d="M6.67,19a2.9,2.9,0,0,1-.89-.13,3,3,0,0,1-1.92-1.73A3.15,3.15,0,0,1,3.62,16a3,3,0,1,1,3.05,3Zm0-5.33A2.3,2.3,0,0,0,4.37,16a2.44,2.44,0,0,0,.18.89A2.29,2.29,0,0,0,6,18.19a2.24,2.24,0,0,0,.68.1,2.29,2.29,0,1,0,0-4.58ZM16,19a3,3,0,1,1,3-3A3,3,0,0,1,16,19Zm0-5.33A2.29,2.29,0,1,0,18.29,16,2.3,2.3,0,0,0,16,13.71ZM25.33,19a3,3,0,1,1,3.05-3A3,3,0,0,1,25.33,19Zm0-5.33A2.29,2.29,0,1,0,27.63,16,2.3,2.3,0,0,0,25.33,13.71Z"/>
	</symbol>

	<symbol id="att-expand" viewBox="0 0 32 32">
		<title>att-expand</title>
		<path d="M27.92,5.72v8.37a.38.38,0,1,1-.75,0V5.72a.7.7,0,0,0-.05-.25l-8.85,8.89a.38.38,0,0,1-.26.11.39.39,0,0,1-.27-.11.37.37,0,0,1,0-.53L26.52,5H18a.38.38,0,1,1,0-.75h8.44A1.46,1.46,0,0,1,27.92,5.72ZM14.45,17.65a.37.37,0,0,0-.53,0L5,26.53a.67.67,0,0,1,0-.24V17.91a.38.38,0,0,0-.38-.38.37.37,0,0,0-.37.38v8.38A1.45,1.45,0,0,0,5.7,27.74h8.48a.38.38,0,1,0,0-.75H5.64l8.81-8.81A.37.37,0,0,0,14.45,17.65Z"/>
	</symbol>

	<symbol id="att-flag" viewBox="0 0 32 32">
		<title>att-flag</title>
		<path d="M23.83,9.75,11,4.57h-.08V3.36A.37.37,0,0,0,10.57,3a.38.38,0,0,0-.38.38V28.64a.38.38,0,0,0,.38.38.37.37,0,0,0,.37-.38v-12l.07,0,12.81-5c.74-.29.86-.72.86-.94S24.57,10.06,23.83,9.75ZM23.54,11l-12.6,4.91V5.35l12.61,5.1a.85.85,0,0,1,.38.25S23.83,10.84,23.54,11Z"/>
	</symbol>

	<symbol id="att-liked" viewBox="0 0 32 32">
		<title>att-liked</title>
		<path d="M22.17,4.34H22c-3.25,0-5.68,3.13-6.08,4.62C15.35,7.44,13,4.35,9.77,4.35H9.56a7.21,7.21,0,0,0-7.09,7.27A7.38,7.38,0,0,0,4,16.15c1.07,1.49,5.28,5.62,5.28,5.62.81.76,2.06,1.84,3,2.65l3.37,2.8a.27.27,0,0,0,.46,0s2.59-2.17,3.32-2.8c.95-.81,2.21-1.9,3-2.68h0l.11-.1a46,46,0,0,0,5.15-5.5,7.45,7.45,0,0,0,1.54-4.54A7.22,7.22,0,0,0,22.17,4.34Z"/>
	</symbol>

	<symbol id="att-link" viewBox="0 0 32 32">
		<title>att-link</title>
		<path d="M17.55,23.41a.37.37,0,0,1,0,.53L13,28.45a6.39,6.39,0,0,1-9,0L3.55,28a6.37,6.37,0,0,1,0-9l7-7a6.33,6.33,0,0,1,4.51-1.86,6.56,6.56,0,0,1,2,.31l4-4a3.37,3.37,0,0,1,4.76,4.76l-6.47,6.46a3.4,3.4,0,0,1-2.4,1h0a3.31,3.31,0,0,1-2.37-1,.37.37,0,1,1,.53-.52,2.62,2.62,0,0,0,1.85.77h0a2.66,2.66,0,0,0,1.87-.76l6.47-6.46a2.62,2.62,0,0,0-3.7-3.7l-3.79,3.8A6.36,6.36,0,0,1,19.56,12l.48.48a.37.37,0,0,1-.53.53L19,12.49a5.64,5.64,0,0,0-8,0l-7,7a5.63,5.63,0,0,0,0,8l.48.48a5.64,5.64,0,0,0,8,0L17,23.41A.39.39,0,0,1,17.55,23.41ZM28.45,4,28,3.55a6.39,6.39,0,0,0-9,0L14.38,8.13a.37.37,0,0,0,0,.53.39.39,0,0,0,.53,0l4.58-4.58a5.62,5.62,0,0,1,8,0l.48.48a5.64,5.64,0,0,1,0,8l-7,7a5.64,5.64,0,0,1-8,0L12.49,19a.37.37,0,0,0-.53.53l.48.48a6.6,6.6,0,0,0,2,1.37L10.4,25.5a2.62,2.62,0,0,1-3.7-3.7l6.47-6.47a2.63,2.63,0,0,1,3.7,0,.37.37,0,0,0,.53,0,.39.39,0,0,0,0-.53,3.38,3.38,0,0,0-4.76,0L6.17,21.27a3.38,3.38,0,0,0,0,4.76,3.38,3.38,0,0,0,4.76,0l4.35-4.36A6.23,6.23,0,0,0,17,21.9,6.33,6.33,0,0,0,21.46,20l7-7a6.39,6.39,0,0,0,0-9Z"/>
	</symbol>

	<symbol id="att-lock" viewBox="0 0 32 32">
		<title>att-lock</title>
		<path d="M26.82,18.09A2.2,2.2,0,0,0,24.89,16V9.46A8.69,8.69,0,0,0,16.05,1,8.69,8.69,0,0,0,7.2,9.46V16a2.22,2.22,0,0,0-1.91,1.77h0V29.25h0A2.25,2.25,0,0,0,7.49,31H24.58a2.24,2.24,0,0,0,2.2-1.79h0ZM16.05,1.71a7.94,7.94,0,0,1,8.09,7.75v6.46H21.68V9.46a5.64,5.64,0,0,0-11.27,0v2.62a.38.38,0,0,0,.75,0V9.46a4.89,4.89,0,0,1,9.77,0v6.46H8V9.46A7.94,7.94,0,0,1,16.05,1.71Zm10,27.16a1.47,1.47,0,0,1-1.49,1.42H7.49A1.47,1.47,0,0,1,6,28.87V18.1a1.48,1.48,0,0,1,1.49-1.43H24.58a1.47,1.47,0,0,1,1.49,1.42V28.87Zm-3.71-2.62H9.73a.38.38,0,0,1-.37-.38.37.37,0,0,1,.37-.37H22.36a.36.36,0,0,1,.37.37A.37.37,0,0,1,22.36,26.25Zm0-4.78H9.73a.38.38,0,0,1,0-.75H22.36a.38.38,0,0,1,0,.75Z"/>
	</symbol>

	<symbol id="att-logout" viewBox="0 0 32 32">
		<title>att-logout</title>
		<path d="M27.33,2.05H4.68a2,2,0,0,0-2,2V22.94a2,2,0,0,0,2,2H13.8a2.41,2.41,0,0,1,2,1.1h0l3.55,4.11a2,2,0,0,0,1.38.73,1.66,1.66,0,0,0,1.66-1.64c0-.1,0-2.47,0-3.48,0-.73.78-.82.91-.83h4a2,2,0,0,0,2-2V4A2,2,0,0,0,27.33,2.05Zm1.22,20.89a1.22,1.22,0,0,1-1.22,1.22h-4a1.62,1.62,0,0,0-1.64,1.59c0,1.31,0,3.31,0,3.45a.91.91,0,0,1-.91.91,1.18,1.18,0,0,1-.8-.46l-3.55-4.11a3.16,3.16,0,0,0-2.59-1.38H4.67a1.22,1.22,0,0,1-1.22-1.22V4A1.23,1.23,0,0,1,4.68,2.8H27.33A1.22,1.22,0,0,1,28.55,4Zm-22-5.65V8.45h.89V11.8a3.33,3.33,0,0,1,.95-.59,3,3,0,0,1,1-.17,2.33,2.33,0,0,1,1.36.41,2.76,2.76,0,0,1,.89,1.14A4.11,4.11,0,0,1,12,14.24a3.83,3.83,0,0,1-.35,1.67,2.7,2.7,0,0,1-1,1.11,2.57,2.57,0,0,1-1.4.39,3.14,3.14,0,0,1-1-.16,3.27,3.27,0,0,1-.88-.48l-.07.52ZM9.2,11.83a2.34,2.34,0,0,0-.91.18,3.56,3.56,0,0,0-.88.56V16a2.53,2.53,0,0,0,.78.48,2.31,2.31,0,0,0,.89.17A1.79,1.79,0,0,0,10.52,16a2.65,2.65,0,0,0,.54-1.73,2.77,2.77,0,0,0-.51-1.74A1.61,1.61,0,0,0,9.2,11.83ZM13.93,20a2.26,2.26,0,0,1-1.07-.26l.2-.7a2.34,2.34,0,0,0,.78.17,1,1,0,0,0,.53-.14,1.65,1.65,0,0,0,.44-.51,8.67,8.67,0,0,0,.55-1.18l.05-.12-2.43-6h1l1.88,5.1,1.84-5.1h1l-2.48,6.2a13.31,13.31,0,0,1-.72,1.55,2.54,2.54,0,0,1-.68.8A1.49,1.49,0,0,1,13.93,20Zm6.68-5.4a2.31,2.31,0,0,0,.68,1.51,2.07,2.07,0,0,0,1.5.55,4,4,0,0,0,1-.11,3.54,3.54,0,0,0,.88-.37l.3.68a4.49,4.49,0,0,1-1,.45,4.71,4.71,0,0,1-1.18.14A3.11,3.11,0,0,1,21.11,17a2.86,2.86,0,0,1-1.05-1.13,3.56,3.56,0,0,1-.36-1.63,3.65,3.65,0,0,1,.38-1.68,2.85,2.85,0,0,1,1-1.12,2.57,2.57,0,0,1,1.41-.4,2.41,2.41,0,0,1,2.27,1.39,3.34,3.34,0,0,1,.32,1.47c0,.22,0,.44,0,.66Zm1.91-2.73a1.7,1.7,0,0,0-1.27.53,2.49,2.49,0,0,0-.63,1.43H24.2v-.06a2.24,2.24,0,0,0-.21-1,1.6,1.6,0,0,0-.6-.68A1.58,1.58,0,0,0,22.52,11.83Z"/>
	</symbol>

	<symbol id="att-mail" viewBox="0 0 32 32">
		<title>att-mail</title>
		<path d="M29.31,11.2,17.57,3.1a2.68,2.68,0,0,0-3.08,0L2.75,11.2a2.63,2.63,0,0,0-1.17,2.18V27.22A2.18,2.18,0,0,0,3.75,29.4H28.24a2.24,2.24,0,0,0,2.23-2.18V13.38A2.62,2.62,0,0,0,29.31,11.2Zm-26.14.62L14.92,3.71A1.86,1.86,0,0,1,16,3.35a1.91,1.91,0,0,1,1.11.36l11.75,8.11a1.89,1.89,0,0,1,.83,1.56v2.09l-4.34,3V13.12A1.17,1.17,0,0,0,24.2,12H7.8a1.17,1.17,0,0,0-1.18,1.17V16a.38.38,0,0,0,.76,0V13.12a.41.41,0,0,1,.42-.42H24.2a.41.41,0,0,1,.42.42V19l-7.48,5.12a2,2,0,0,1-2.28,0L2.33,15.36v-2A1.87,1.87,0,0,1,3.17,11.82ZM28.24,28.65H3.75a1.43,1.43,0,0,1-1.42-1.43V16.28l12.09,8.4A2.67,2.67,0,0,0,16,25.2a2.7,2.7,0,0,0,1.57-.51l12.15-8.31V27.22A1.47,1.47,0,0,1,28.24,28.65Z"/>
	</symbol>

	<symbol id="att-messages" viewBox="0 0 32 32">
		<title>att-messages</title>
		<path d="M27.62,30.14h-.05a1.57,1.57,0,0,1-.73-.23l-2.79-1.73-1.34-.83a1.15,1.15,0,0,0-.39-.15.37.37,0,0,0-.17.06A10.21,10.21,0,0,1,16,28.86a13.5,13.5,0,1,1,13.5-13.5,12.44,12.44,0,0,1-2.69,8c-.18.25-.14.34-.07.5.3.68,1.73,4,2,4.74a1.24,1.24,0,0,1,0,.66,1.17,1.17,0,0,1-1.16.88m-5.3-3.69a1.74,1.74,0,0,1,.73.23c.06,0,.34.2,1.39.86s2.25,1.4,2.78,1.72a.93.93,0,0,0,.36.13l0,.37v-.37a.41.41,0,0,0,.43-.31.36.36,0,0,0,0-.23c-.27-.76-1.72-4.09-2-4.69a1.1,1.1,0,0,1,.17-1.25,11.77,11.77,0,0,0,2.53-7.55A12.75,12.75,0,1,0,16,28.11a9.47,9.47,0,0,0,5.78-1.5,1.12,1.12,0,0,1,.54-.16m.33-10.63a.38.38,0,1,0,0-.75H9.49a.38.38,0,1,0,0,.75H22.65m0-4.19a.38.38,0,0,0,.38-.38.37.37,0,0,0-.38-.37H9.49a.37.37,0,0,0-.38.37.38.38,0,0,0,.38.38H22.65m0,8.38a.37.37,0,0,0,.38-.37.38.38,0,0,0-.38-.38H9.49a.38.38,0,0,0-.38.38.37.37,0,0,0,.38.37H22.65"/>
	</symbol>

	<symbol id="att-muted" viewBox="0 0 32 32">
		<title>att-muted</title>
		<path d="M30.34,28.07,26.8,24.5a4.53,4.53,0,0,0,.54-.27.05.05,0,0,0,0,0,2.33,2.33,0,0,0,.86-1.57,2.59,2.59,0,0,0-.92-2,12.38,12.38,0,0,1-2.23-2.45,12.78,12.78,0,0,1-1.5-3.67,50.91,50.91,0,0,1-.79-6.61c0-.08-.12-1.92-1.38-2.48a6.32,6.32,0,0,0-2.36-.47V3.56a1.81,1.81,0,0,0-1.82-1.82H14.58a1.81,1.81,0,0,0-1.81,1.82V5a6.75,6.75,0,0,0-1.56.33l-.3.09A2.4,2.4,0,0,0,9.46,7L7.34,4.87,3.42.92a.38.38,0,0,0-.53,0,.37.37,0,0,0,0,.53L29.8,28.6a.4.4,0,0,0,.27.11.38.38,0,0,0,.27-.64ZM13.52,3.56a1.07,1.07,0,0,1,1.06-1.07h2.66a1.07,1.07,0,0,1,1.07,1.07V4.9l-2.3,0h0c-1.06,0-1.85,0-2.46.06Zm-2.4,2.56.32-.1c.67-.21,1.3-.4,4.56-.41,3.75,0,4.43.19,5.12.49s.91,1.43.93,1.83a51.89,51.89,0,0,0,.8,6.72,13.11,13.11,0,0,0,1.6,3.9,14.41,14.41,0,0,0,1.7,2l.64.58,0,0a1.88,1.88,0,0,1,.67,1.41,1.58,1.58,0,0,1-.54,1,6.82,6.82,0,0,1-.72.33L10.05,7.61C10.2,7.1,10.51,6.29,11.12,6.12Zm8,21.52a3.17,3.17,0,0,1-6.33,0,.38.38,0,0,1,.38-.38.37.37,0,0,1,.37.38,2.42,2.42,0,0,0,4.83,0,.38.38,0,1,1,.75,0Zm4.41-2.55a.36.36,0,0,1-.3.42h0a45.07,45.07,0,0,1-7.27.62h0c-.52,0-8,0-11.34-1.91l0,0a2.33,2.33,0,0,1-.86-1.57,2.59,2.59,0,0,1,.89-2L5,20.3c1.59-1.61,2.85-2.88,3.42-5.8.25-1.24.43-2.5.55-3.58H9a.37.37,0,0,1,.36-.3.38.38,0,0,1,.37.38s0,0,0,.05h0c-.12,1.08-.3,2.35-.55,3.6a10.7,10.7,0,0,1-3.63,6.17l-.34.35a1.89,1.89,0,0,0-.67,1.42,1.58,1.58,0,0,0,.54,1c3.2,1.76,10.61,1.8,11,1.8a45.91,45.91,0,0,0,7.15-.62h0A.37.37,0,0,1,23.57,25.09Z"/>
	</symbol>

	<symbol id="att-notification" viewBox="0 0 32 32">
		<title>att-notification</title>
		<path d="M20.77,30.86a2,2,0,0,1-1.38-.73L15.85,26h0a2.41,2.41,0,0,0-2-1.1H4.68a2,2,0,0,1-2-2V4a2,2,0,0,1,2-2H27.33a2,2,0,0,1,2,2V22.94a2,2,0,0,1-2,2h-4c-.13,0-.91.1-.91.83,0,1,0,3.38,0,3.48A1.66,1.66,0,0,1,20.77,30.86Zm-4.35-5.32L20,29.65a1.18,1.18,0,0,0,.8.46.91.91,0,0,0,.91-.91c0-.13,0-2.14,0-3.45a1.62,1.62,0,0,1,1.64-1.59h4a1.22,1.22,0,0,0,1.22-1.22V4A1.22,1.22,0,0,0,27.33,2.8H4.68A1.23,1.23,0,0,0,3.45,4V22.94a1.23,1.23,0,0,0,1.23,1.22h9.15A3.16,3.16,0,0,1,16.42,25.54Zm.43-5.66a.79.79,0,0,1-.25.58.91.91,0,0,1-1.21,0,.8.8,0,0,1,0-1.16.91.91,0,0,1,1.21,0A.79.79,0,0,1,16.85,19.88Zm-.43-3.32h-.85L15.43,6.31h1.13Z"/>
	</symbol>

	<symbol id="att-picture" viewBox="0 0 32 32">
		<title>att-picture</title>
		<path d="M31,8.85,29,21.93a.38.38,0,0,1-.37.31h0a.38.38,0,0,1-.32-.43l2-13.08a1.19,1.19,0,0,0-1-1.35L7.35,4A1.2,1.2,0,0,0,6,5l-.06.33-.16,1a.37.37,0,0,1-.42.31A.38.38,0,0,1,5,6.21l.22-1.34A1.94,1.94,0,0,1,6,3.61a1.9,1.9,0,0,1,1.44-.35L29.35,6.64A1.94,1.94,0,0,1,31,8.85ZM27,10.05V25.58a1.94,1.94,0,0,1-1.93,1.94H2.94A1.94,1.94,0,0,1,1,25.58V10.05A1.94,1.94,0,0,1,2.94,8.11H25.1A1.94,1.94,0,0,1,27,10.05Zm-.75,15.53V10.05A1.18,1.18,0,0,0,25.1,8.86H2.94a1.18,1.18,0,0,0-1.18,1.19V25.58a1.18,1.18,0,0,0,1.18,1.19H25.1A1.18,1.18,0,0,0,26.28,25.58ZM21.74,15.1a1.13,1.13,0,0,0-1.55,0l-3.48,3.48L16,17.9a1.13,1.13,0,0,0-1.55,0L7.85,24.54a.37.37,0,0,0,0,.53.34.34,0,0,0,.26.11.36.36,0,0,0,.27-.11L15,18.43a.36.36,0,0,1,.49,0l.94.95a.39.39,0,0,0,.53,0l3.74-3.75a.36.36,0,0,1,.49,0l2.86,2.86A.37.37,0,1,0,24.6,18ZM8.93,17.78a2.36,2.36,0,1,1,2.35-2.36A2.36,2.36,0,0,1,8.93,17.78Zm0-.75a1.61,1.61,0,1,0-1.61-1.61A1.61,1.61,0,0,0,8.93,17Z"/>
	</symbol>

	<symbol id="att-pinned" viewBox="0 0 32 32">
		<title>att-pinned</title>
		<path d="M27.54,26c-.23-.73-.42-1.37-.51-1.67a1.31,1.31,0,0,1,.18-1.17h0a13.27,13.27,0,1,0-5.64,4.93h0a1,1,0,0,1,.95,0c.14.07,2.95,1.69,4.08,2.36a1.5,1.5,0,0,0,.75.25h0a1.16,1.16,0,0,0,1.16-.88,1.23,1.23,0,0,0,0-.65C28.34,28.59,27.9,27.15,27.54,26ZM22.6,21.44H9.4a.75.75,0,0,1,0-1.5H22.6a.75.75,0,0,1,0,1.5Zm0-4.69H9.4a.75.75,0,1,1,0-1.5H22.6a.75.75,0,0,1,0,1.5Zm0-4.69H9.4a.75.75,0,0,1,0-1.5H22.6a.75.75,0,0,1,0,1.5Zm4.8,18.38Z"/>
	</symbol>

	<symbol id="att-regular" viewBox="0 0 32 32">
		<title>att-regular</title>
		<path d="M27.32,20.62a12.38,12.38,0,0,1-2.23-2.45,12.78,12.78,0,0,1-1.5-3.67,50.91,50.91,0,0,1-.79-6.61c0-.08-.12-1.92-1.38-2.48a6.32,6.32,0,0,0-2.36-.47V3.56a1.81,1.81,0,0,0-1.82-1.82H14.58a1.81,1.81,0,0,0-1.81,1.82V5a6.75,6.75,0,0,0-1.56.33l-.3.09C9.52,5.79,9.22,7.87,9.21,8A52.64,52.64,0,0,1,8.4,14.5C7.83,17.42,6.57,18.69,5,20.3l-.34.34a2.59,2.59,0,0,0-.89,2,2.33,2.33,0,0,0,.86,1.57l0,0C8,26.11,15.47,26.14,16,26.14h0c.52,0,8,0,11.34-1.91a.05.05,0,0,0,0,0,2.33,2.33,0,0,0,.86-1.57A2.59,2.59,0,0,0,27.32,20.62ZM13.52,3.56a1.07,1.07,0,0,1,1.06-1.07h2.66a1.07,1.07,0,0,1,1.07,1.07V4.9c-.62,0-1.37,0-2.3,0h0c-1.06,0-1.85,0-2.46,0ZM27,23.59c-3.2,1.76-10.62,1.8-11,1.8s-7.75,0-10.95-1.8a1.58,1.58,0,0,1-.54-1,1.89,1.89,0,0,1,.67-1.42l.34-.35a10.7,10.7,0,0,0,3.63-6.17A52.82,52.82,0,0,0,10,8.06s.26-1.68,1.17-1.94l.32-.1c.67-.21,1.3-.4,4.56-.4,3.75,0,4.43.18,5.12.48s.91,1.43.93,1.83a51.89,51.89,0,0,0,.8,6.72,13.42,13.42,0,0,0,1.59,3.9,10.27,10.27,0,0,0,1.71,2,34.3,34.3,0,0,1-16.95,1,.37.37,0,1,0-.13.73A39.29,39.29,0,0,0,16,23a31.63,31.63,0,0,0,10.8-1.8l0,0a1.88,1.88,0,0,1,.67,1.41A1.58,1.58,0,0,1,27,23.59ZM16,30.8a3.17,3.17,0,0,1-3.17-3.16.38.38,0,0,1,.38-.38.37.37,0,0,1,.37.38,2.42,2.42,0,0,0,4.83,0,.38.38,0,1,1,.75,0A3.17,3.17,0,0,1,16,30.8Z"/>
	</symbol>

	<symbol id="att-reply" viewBox="0 0 32 32">
		<title>att-reply</title>
		<path d="M1.92,14.28,7.68,9.9a.37.37,0,0,1,.53.07.38.38,0,0,1-.07.52L2.37,14.88a1.63,1.63,0,0,0-.52.67H8.38c13.77,0,20,6.08,22.44,9.71a.37.37,0,0,1-.62.42c-2.39-3.5-8.4-9.38-21.82-9.38H1.82a1.56,1.56,0,0,0,.54.75l5.75,4.41a.37.37,0,0,1,.07.53.38.38,0,0,1-.52.07L1.91,17.65a2,2,0,0,1,0-3.37Z"/>
	</symbol>

	<symbol id="att-search" viewBox="0 0 32 32">
		<title>att-search</title>
		<path d="M26,28.26l-7.48-7.49A9.75,9.75,0,0,1,6,5.87H6a9.75,9.75,0,0,1,15,12.4l7.49,7.5A1.76,1.76,0,0,1,26,28.26ZM6.55,6.4A9,9,0,0,0,18.3,20a.38.38,0,0,1,.49,0l7.71,7.72A1,1,0,0,0,28.23,27a1,1,0,0,0-.3-.71l-7.72-7.72a.38.38,0,0,1,0-.49A9,9,0,0,0,6.55,6.4Zm6.37,13.36a.38.38,0,0,0,0-.76,6.24,6.24,0,0,1,0-12.47,6.16,6.16,0,0,1,4.4,1.83.38.38,0,0,0,.54,0,.39.39,0,0,0,0-.53,7,7,0,1,0-4.94,11.93Z"/>
	</symbol>

	<symbol id="att-settings" viewBox="0 0 32 32">
		<title>att-settings</title>
		<path d="M16,29.77c-.34,0-.72,0-1.17,0a.94.94,0,0,1-.83-.67,19.31,19.31,0,0,1-.64-2.79l-.64-.18-.29-.1L12,25.83a17.28,17.28,0,0,1-2.37,1.82,1,1,0,0,1-1,0A13.09,13.09,0,0,1,7,26.43a1,1,0,0,1-.28-1,18.12,18.12,0,0,1,1.12-2.61c-.15-.19-.3-.37-.43-.57a4.23,4.23,0,0,1-.4-.58,17.72,17.72,0,0,1-3,.08,1,1,0,0,1-.82-.6,12,12,0,0,1-.62-2,.93.93,0,0,1,.38-1,18.6,18.6,0,0,1,2.46-1.47,1.55,1.55,0,0,1,0-.22c0-.13,0-.26,0-.4V16c0-.22,0-.36,0-.5a2.09,2.09,0,0,1,0-.25A16.06,16.06,0,0,1,3,13.58a1,1,0,0,1-.32-.93,15.15,15.15,0,0,1,.59-1.83l.06-.13a.92.92,0,0,1,.91-.61A20.68,20.68,0,0,1,7,10.34a4.55,4.55,0,0,1,.43-.61,4.09,4.09,0,0,1,.4-.53,17.05,17.05,0,0,1-1-2.81.93.93,0,0,1,.32-1l.1-.07A13.43,13.43,0,0,1,8.88,4.21a1,1,0,0,1,1,.07,19.85,19.85,0,0,1,2.15,1.87l.24-.08.38-.14c.25-.08.49-.15.74-.21a16.64,16.64,0,0,1,.85-2.87.94.94,0,0,1,.8-.59,12.93,12.93,0,0,1,2.06,0,1,1,0,0,1,.83.66,19.76,19.76,0,0,1,.64,2.8l.64.18.29.1.42.16a16.93,16.93,0,0,1,2.37-1.82,1,1,0,0,1,1,0A13,13,0,0,1,25,5.57a.94.94,0,0,1,.28,1,18.76,18.76,0,0,1-1.12,2.62c.15.18.29.37.43.57a4.52,4.52,0,0,1,.4.58,17.66,17.66,0,0,1,3-.08,1,1,0,0,1,.82.6,13.12,13.12,0,0,1,.62,2,1,1,0,0,1-.37,1h0a19.41,19.41,0,0,1-2.47,1.47v.2c0,.17,0,.29,0,.41V16c0,.2,0,.33,0,.45v.31A16.8,16.8,0,0,1,29,18.42a1,1,0,0,1,.32.93,14.31,14.31,0,0,1-.6,1.85,1.09,1.09,0,0,1-.93.72A19.25,19.25,0,0,1,25,21.65a4.49,4.49,0,0,1-.42.62c-.11.15-.25.34-.41.53a17.05,17.05,0,0,1,1,2.81.92.92,0,0,1-.33,1,15.84,15.84,0,0,1-1.67,1.18,1,1,0,0,1-1-.06,18.5,18.5,0,0,1-2.16-1.89l-.36.14-.26.09c-.29.09-.52.16-.74.21a16.64,16.64,0,0,1-.85,2.87,1,1,0,0,1-.8.59C16.64,29.76,16.34,29.77,16,29.77ZM12,25a.32.32,0,0,1,.14,0l.59.22.29.11c.25.07.54.16.83.22a.38.38,0,0,1,.29.32,18,18,0,0,0,.65,2.92.19.19,0,0,0,.17.14,12.61,12.61,0,0,0,1.94,0,.23.23,0,0,0,.17-.13,16.1,16.1,0,0,0,.85-3,.38.38,0,0,1,.29-.29c.26-.06.54-.14.9-.25l.21-.08c.22-.08.41-.14.6-.22a.37.37,0,0,1,.41.08,17.53,17.53,0,0,0,2.24,2,.22.22,0,0,0,.22,0A13.67,13.67,0,0,0,24.33,26a.18.18,0,0,0,.07-.2,16.41,16.41,0,0,0-1.06-2.91.39.39,0,0,1,.06-.41,6.61,6.61,0,0,0,.54-.67,6.76,6.76,0,0,0,.49-.74.64.64,0,0,1,.1-.13.39.39,0,0,1,.31-.08,18.47,18.47,0,0,0,3,.3.46.46,0,0,0,.22-.22,12.45,12.45,0,0,0,.57-1.76.21.21,0,0,0-.06-.2A15.47,15.47,0,0,0,26,17.27a.39.39,0,0,1-.19-.35c0-.14,0-.27,0-.4V16.4c0-.12,0-.25,0-.44s0-.25,0-.38v-.11c0-.12,0-.24,0-.37a.37.37,0,0,1,.21-.36,17.69,17.69,0,0,0,2.58-1.51h0a.18.18,0,0,0,.08-.2,11.84,11.84,0,0,0-.59-1.87.2.2,0,0,0-.16-.12,16.14,16.14,0,0,0-3.1.11.38.38,0,0,1-.37-.18v0h0a5.89,5.89,0,0,0-.46-.69,7.4,7.4,0,0,0-.57-.73.36.36,0,0,1-.05-.43,18.93,18.93,0,0,0,1.2-2.74.21.21,0,0,0-.06-.21A13.32,13.32,0,0,0,22.94,5a.2.2,0,0,0-.21,0,16.7,16.7,0,0,0-2.43,1.9.37.37,0,0,1-.4.07c-.21-.09-.41-.16-.61-.23L19,6.62l-.83-.22a.38.38,0,0,1-.29-.32,18,18,0,0,0-.65-2.92A.19.19,0,0,0,17.08,3a12.62,12.62,0,0,0-1.94,0,.2.2,0,0,0-.17.12,16.68,16.68,0,0,0-.85,3,.38.38,0,0,1-.28.29c-.32.07-.62.16-.91.25l-.36.13-.45.17a.37.37,0,0,1-.42-.09,17.28,17.28,0,0,0-2.23-2,.2.2,0,0,0-.22,0,13.19,13.19,0,0,0-1.49,1L7.66,6a.18.18,0,0,0-.06.2A15.93,15.93,0,0,0,8.66,9.1a.39.39,0,0,1-.06.41,6.1,6.1,0,0,0-.54.67,7.42,7.42,0,0,0-.5.74.26.26,0,0,1-.07.1.37.37,0,0,1-.33.11,18.47,18.47,0,0,0-3-.3A.17.17,0,0,0,4,11l-.06.13a12.86,12.86,0,0,0-.55,1.72.21.21,0,0,0,.06.2A15.47,15.47,0,0,0,6,14.73a.36.36,0,0,1,.19.36c0,.15,0,.31,0,.46s0,.27,0,.49,0,.27,0,.41,0,.29,0,.44a.38.38,0,0,1-.21.37A17.17,17.17,0,0,0,3.4,18.77a.18.18,0,0,0-.08.2,12.42,12.42,0,0,0,.59,1.86.18.18,0,0,0,.17.13,16.12,16.12,0,0,0,3.09-.11.38.38,0,0,1,.39.22,4.6,4.6,0,0,0,.46.69,8.11,8.11,0,0,0,.56.72.36.36,0,0,1,.05.43,17.35,17.35,0,0,0-1.19,2.73.2.2,0,0,0,0,.22A12.74,12.74,0,0,0,9.06,27a.2.2,0,0,0,.21,0,16.26,16.26,0,0,0,2.43-1.89A.35.35,0,0,1,12,25Zm4.22-3.36a5.87,5.87,0,1,1,.6-11.7.37.37,0,0,1,.33.41.37.37,0,0,1-.41.33,5.12,5.12,0,0,0-5.64,5.09,5.12,5.12,0,0,0,5.12,5.12h0a5.07,5.07,0,0,0,3.62-1.5A5.15,5.15,0,0,0,21,17.46a.37.37,0,1,1,.7.25,5.76,5.76,0,0,1-1.39,2.23,5.82,5.82,0,0,1-4.15,1.72Z"/>
	</symbol>

	<symbol id="att-share" viewBox="0 0 32 32">
		<title>att-share</title>
		<path d="M30.08,14.28,24.32,9.9a.37.37,0,0,0-.53.07.38.38,0,0,0,.07.52l5.77,4.39a1.63,1.63,0,0,1,.52.67H23.62c-13.77,0-20,6.08-22.44,9.71a.37.37,0,1,0,.62.42c2.39-3.5,8.4-9.38,21.82-9.38h6.56a1.56,1.56,0,0,1-.54.75l-5.75,4.41a.37.37,0,0,0-.07.53.38.38,0,0,0,.52.07l5.75-4.41a2,2,0,0,0,0-3.37Z"/>
	</symbol>

	<symbol id="att-star" viewBox="0 0 32 32">
		<title>att-star</title>
		<path d="M30,14.31l-4.63,4.4A4.25,4.25,0,0,0,24.3,22l1,6.31a1.47,1.47,0,0,1-.47,1.57,1.11,1.11,0,0,1-.67.2,2,2,0,0,1-1-.28l-5.63-3a4.22,4.22,0,0,0-3.46,0L9.61,29a.38.38,0,1,1-.34-.67l4.49-2.29a5,5,0,0,1,4.17,0l5.62,3c.37.19.68.24.85.12s.23-.43.16-.84l-1-6.31a4.93,4.93,0,0,1,1.33-3.95l4.63-4.4c.3-.29.44-.58.38-.78s-.34-.35-.75-.41l-6.32-1A5,5,0,0,1,19.49,9.1L16.73,3.34c-.18-.37-.41-.6-.61-.6h0c-.21,0-.44.22-.62.58L12.6,9a5,5,0,0,1-3.4,2.41l-6.34.85c-.4.05-.69.2-.75.39s.07.49.36.78L7,18a4.93,4.93,0,0,1,1.24,4l-.68,3.5a.38.38,0,0,1-.74-.14l.69-3.5a4.26,4.26,0,0,0-1-3.31L1.94,14a1.48,1.48,0,0,1-.54-1.55c.09-.28.4-.77,1.36-.9l6.34-.84a4.24,4.24,0,0,0,2.83-2L14.83,3c.44-.87,1-1,1.3-1s.86.14,1.28,1l2.76,5.76A4.26,4.26,0,0,0,23,10.85l6.32,1c1,.15,1.25.65,1.34.93A1.47,1.47,0,0,1,30,14.31Z"/>
	</symbol>

	<symbol id="att-starred" viewBox="0 0 32 32">
		<title>att-starred</title>
		<path d="M15,3.12c.53-1.06,1.39-1.06,1.92,0L19.8,8.88a4.61,4.61,0,0,0,3.1,2.25l6.35.92c1.18.17,1.44,1,.59,1.83l-4.59,4.48A4.6,4.6,0,0,0,24.06,22l1.09,6.33c.2,1.17-.5,1.68-1.55,1.12l-5.68-3a4.6,4.6,0,0,0-3.84,0l-5.68,3c-1.05.56-1.75.05-1.55-1.12L7.94,22a4.6,4.6,0,0,0-1.19-3.64L2.16,13.88c-.85-.84-.59-1.66.59-1.83l6.35-.92a4.59,4.59,0,0,0,3.1-2.25Z"/>
	</symbol>

	<symbol id="att-tools" viewBox="0 0 32 32">
		<title>att-tools</title>
		<path d="M1.14,4.28a.38.38,0,0,1,0-.5l2.6-2.59a.37.37,0,0,1,.5,0L9.64,5.42a2.31,2.31,0,0,1,.61,2.1l4.4,4.4a.37.37,0,0,1,0,.53.39.39,0,0,1-.53,0L9.58,7.91a.39.39,0,0,1-.1-.36A1.61,1.61,0,0,0,9.14,6L4.05,2,1.93,4.08,6,9.19a1.61,1.61,0,0,0,1.54.31.39.39,0,0,1,.36.1l4.54,4.54a.4.4,0,0,1,0,.54.4.4,0,0,1-.27.11.38.38,0,0,1-.26-.11l-4.4-4.4a2.35,2.35,0,0,1-2.07-.59ZM8.57,23.45a2.81,2.81,0,0,1-2,4.79,2.75,2.75,0,0,1-2-.82h0a2.81,2.81,0,0,1,4-4ZM8,24a2.05,2.05,0,1,0,0,2.89A2.05,2.05,0,0,0,8,24Zm19.28,2a.36.36,0,0,0,.27-.12.38.38,0,0,0,0-.53L21,18.88a.37.37,0,0,0-.53,0,.38.38,0,0,0,0,.53l6.6,6.5A.38.38,0,0,0,27.32,26Zm-8.57-5.43a.38.38,0,0,0,0,.53l6.59,6.49a.36.36,0,0,0,.27.11.37.37,0,0,0,.26-.64l-6.6-6.5A.38.38,0,0,0,18.75,20.59Zm-6.94,3.05a5.52,5.52,0,1,1-3.43-3.43L19,9.59a6.22,6.22,0,0,1,7.94-8.13.37.37,0,0,1,.23.28.36.36,0,0,1-.1.34L23.32,5.83A2,2,0,0,0,24.74,9.3h0a2,2,0,0,0,1.44-.6L29.94,5a.37.37,0,0,1,.35-.1.4.4,0,0,1,.27.24A6.22,6.22,0,0,1,22.43,13Zm-.78,0a.39.39,0,0,1,.08-.4l11-11a.39.39,0,0,1,.42-.08A5.46,5.46,0,0,0,30,5.92L26.72,9.23a2.77,2.77,0,0,1-2,.82h0A2.77,2.77,0,0,1,22,7.27a2.77,2.77,0,0,1,.82-2L26.1,2a5.46,5.46,0,0,0-6.31,7.53.39.39,0,0,1-.08.42l-11,11a.37.37,0,0,1-.4.08,4.73,4.73,0,0,0-1.73-.32,4.76,4.76,0,1,0,4.42,3Zm11-8.12a.37.37,0,1,0-.53.53l8.1,8.11a2.21,2.21,0,0,1,.62,1.73,3,3,0,0,1-.9,1.9l-1.48,1.48a3,3,0,0,1-1.9.9,2.18,2.18,0,0,1-1.73-.62l-8.11-8.1a.37.37,0,0,0-.53.53l8.1,8.11a3,3,0,0,0,2.09.84H26a3.78,3.78,0,0,0,2.38-1.11l1.49-1.49A3.76,3.76,0,0,0,30.94,26a2.92,2.92,0,0,0-.84-2.31Z"/>
	</symbol>

	<symbol id="att-tracking" viewBox="0 0 32 32">
		<title>att-tracking</title>
		<path d="M19.18,26.85c0,2.45-1.39,3.39-3.11,3.39S13,29.3,13,26.85a20.89,20.89,0,0,0,3.16.21A18.66,18.66,0,0,0,19.18,26.85Zm8.39-6.4c-1.77-1.83-3.33-3.22-4-6.62a65.35,65.35,0,0,1-.92-7.12s-.31-1.54-1.25-1.85a9,9,0,0,0-2.34-.64V3.13a1.46,1.46,0,0,0-1.42-1.5h-3.3a1.46,1.46,0,0,0-1.42,1.5V4.24a7.72,7.72,0,0,0-2.12.62c-1,.37-1.31,1.85-1.31,1.85a58,58,0,0,1-.86,7.12c-.66,3.4-2.22,4.79-4,6.62s-.07,3.13-.07,3.13c3.37,1.9,11,2,11.53,2h0c.48,0,8.16-.05,11.53-2C27.65,23.58,29.35,22.28,27.57,20.45Z"/>
	</symbol>

	<symbol id="att-unliked" viewBox="0 0 32 32">
		<title>att-unliked</title>
		<path d="M16.06,28.3h0a.72.72,0,0,1-.47-.25l-3.51-2.91C10.64,23.93,9.58,23,8.89,22.35a81.07,81.07,0,0,1-5.58-5.94,8.14,8.14,0,0,1-1.69-5,7.94,7.94,0,0,1,7.81-8h.22a7.2,7.2,0,0,1,5.24,2.66.37.37,0,0,1,0,.53.37.37,0,0,1-.52,0A6.49,6.49,0,0,0,9.65,4.2H9.43a7.19,7.19,0,0,0-7.06,7.24A7.49,7.49,0,0,0,3.91,16c1.1,1.51,5.46,5.8,5.5,5.84.67.63,1.72,1.56,3.13,2.76l3.52,2.92c.11-.09,2.73-2.28,3.48-2.92.95-.81,2.25-1.94,3.12-2.75l.06-.06.07-.06A48.43,48.43,0,0,0,28.16,16a7.47,7.47,0,0,0,1.54-4.53,7.19,7.19,0,0,0-7.06-7.25h-.21c-3.11,0-5.61,3-6,4.56a.38.38,0,1,1-.73-.19c.49-1.79,3.23-5.12,6.74-5.12h.23a7.94,7.94,0,0,1,7.81,8,8.17,8.17,0,0,1-1.68,5,47.45,47.45,0,0,1-5.44,5.81l-.09.08,0,0c-.88.82-2.22,2-3.2,2.82-.72.62-3.2,2.7-3.46,2.92A.69.69,0,0,1,16.06,28.3Z"/>
	</symbol>

	<symbol id="att-user" viewBox="0 0 32 32">
		<title>att-user</title>
		<path d="M26.64,25.08v.07c0,3-4.75,5.3-10.8,5.3A17.44,17.44,0,0,1,7.7,28.67.37.37,0,1,1,8.06,28a16.72,16.72,0,0,0,7.78,1.68c5.54,0,10.05-2,10.05-4.55v-.07a2.63,2.63,0,0,0-.05-.56l-.05-.29c-.05-.32-.12-.72-.2-1.15a33.44,33.44,0,0,0-2-7.42C23,14.41,21.29,13.35,19,12.83H18.9a.36.36,0,0,1-.3-.28.37.37,0,0,1,.15-.39l.11-.08a5.48,5.48,0,1,0-6.1,0l.08.06.07,0a.39.39,0,0,1,.17.39.36.36,0,0,1-.31.3l-.11,0c-2.29.52-4,1.56-4.55,2.79a33.44,33.44,0,0,0-2,7.34.39.39,0,0,1-.44.31.38.38,0,0,1-.3-.44,32.79,32.79,0,0,1,2.06-7.53c.59-1.3,2.22-2.42,4.43-3a6.23,6.23,0,1,1,8,0c2.21.63,3.84,1.74,4.43,3.06a34.29,34.29,0,0,1,2.07,7.6c.08.44.15.84.2,1.17l0,.29A3.3,3.3,0,0,1,26.64,25.08Z"/>
	</symbol>
	
	<symbol id="att-watching" viewBox="0 0 32 32">
		<title>att-watching</title>
		<path d="M19.18,26.85c0,2.45-1.39,3.39-3.11,3.39S13,29.3,13,26.85a20.89,20.89,0,0,0,3.16.21A18.66,18.66,0,0,0,19.18,26.85Zm8.39-6.4c-1.77-1.83-3.33-3.22-4-6.62a65.35,65.35,0,0,1-.92-7.12s-.31-1.54-1.25-1.85a9,9,0,0,0-2.34-.64V3.13a1.46,1.46,0,0,0-1.42-1.5h-3.3a1.46,1.46,0,0,0-1.42,1.5V4.24a7.72,7.72,0,0,0-2.12.62c-1,.37-1.31,1.85-1.31,1.85a58,58,0,0,1-.86,7.12c-.66,3.4-2.22,4.79-4,6.62s-.07,3.13-.07,3.13c3.37,1.9,11,2,11.53,2h0c.48,0,8.16-.05,11.53-2C27.65,23.58,29.35,22.28,27.57,20.45ZM17.65,7.62l-.37,9.83H14.72l-.37-9.83ZM17.31,22a2,2,0,0,1-2.61,0,1.85,1.85,0,0,1,0-2.53,2,2,0,0,1,2.6,0,1.71,1.71,0,0,1,.5,1.26A1.76,1.76,0,0,1,17.31,22Z"/>
	</symbol>

</svg>