<?xml version="1.0" encoding="UTF-8"?>
<svg xmlns="http://www.w3.org/2000/svg" style="display: none;">

	<symbol id="att-bars" viewBox="0 0 36 36">
		<title>bars</title>
	<path d="M27.63,11.62H8.37a.37.37,0,1,1,0-.74H27.63a.37.37,0,1,1,0,.74Z"/>
		<path d="M27.63,18.38H8.37a.38.38,0,1,1,0-.76H27.63a.38.38,0,1,1,0,.76Z"/>
		<path d="M27.63,25.13H8.37A.38.38,0,0,1,8,24.75a.37.37,0,0,1,.38-.37H27.63a.37.37,0,0,1,.38.37A.38.38,0,0,1,27.63,25.13Z"/>
	</symbol>

	<symbol id="att-bookmark" viewBox="0 0 36 36">
		<title>bookmark</title>
		<path d="M29.17,29.36a.37.37,0,0,1-.37.38H13A.38.38,0,0,1,13,29H28.8A.37.37,0,0,1,29.17,29.36Zm0-2.14a.37.37,0,0,1-.37.38H13a.38.38,0,0,1,0-.75H28.8A.37.37,0,0,1,29.17,27.22Zm-.37-23a.38.38,0,0,0-.38.38V24.73H10.8A4,4,0,0,0,7.58,26.2V7.2c0-1.37,1.32-2.32,3.22-2.32h8.68v12a.65.65,0,0,0,.29.54.66.66,0,0,0,.64,0l2.38-1.29,2.41,1.3a.56.56,0,0,0,.25,0,.63.63,0,0,0,.65-.64V3.28a.74.74,0,0,0-.74-.73H20.22a.74.74,0,0,0-.74.73v.85H10.8c-2.34,0-4,1.26-4,3.07V28.3h0a3.79,3.79,0,0,0,4,3.58h18a.38.38,0,0,0,0-.75h-18A3.06,3.06,0,0,1,7.57,28.3h0a3,3,0,0,1,3.22-2.82h18a.37.37,0,0,0,.37-.38V4.55A.37.37,0,0,0,28.8,4.17ZM20.23,3.3l5.12,0V16.67l-2.56-1.39-2.56,1.39Z"/>
	</symbol>

	<symbol id="att-chevron-down" viewBox="0 0 36 36">
		<title>chevron-down</title>
		<path d="M18,23.82a1.82,1.82,0,0,1-1.28-.53L6.25,12.82a.37.37,0,0,1,.53-.53L17.25,22.76a1.09,1.09,0,0,0,1.5,0L29.22,12.29a.37.37,0,0,1,.53.53L19.28,23.29A1.82,1.82,0,0,1,18,23.82Z"/>
	</symbol>

	<symbol id="att-ellipsis-h" viewBox="0 0 36 36">
		<title>ellipsis-h</title>
		<path d="M8.67,21a2.9,2.9,0,0,1-.89-.13,3,3,0,0,1-1.92-1.73A3.15,3.15,0,0,1,5.62,18a3,3,0,1,1,3.05,3Zm0-5.33A2.3,2.3,0,0,0,6.37,18a2.44,2.44,0,0,0,.18.89A2.29,2.29,0,0,0,8,20.19a2.24,2.24,0,0,0,.68.1,2.29,2.29,0,1,0,0-4.58ZM18,21a3,3,0,1,1,3-3A3,3,0,0,1,18,21Zm0-5.33A2.29,2.29,0,1,0,20.29,18,2.3,2.3,0,0,0,18,15.71ZM27.33,21a3,3,0,1,1,3.05-3A3,3,0,0,1,27.33,21Zm0-5.33A2.29,2.29,0,1,0,29.63,18,2.3,2.3,0,0,0,27.33,15.71Z"/>
	</symbol>

	<symbol id="att-flag" viewBox="0 0 36 36">
		<title>flag</title>
		<path d="M25.83,11.75,13,6.57h-.08V5.36A.37.37,0,0,0,12.57,5a.38.38,0,0,0-.38.38V30.64a.38.38,0,0,0,.38.38.37.37,0,0,0,.37-.38v-12l.07,0,12.81-5c.74-.29.86-.72.86-.94S26.57,12.06,25.83,11.75ZM25.54,13l-12.6,4.91V7.35l12.61,5.1a.85.85,0,0,1,.38.25S25.83,12.84,25.54,13Z"/>
	</symbol>

	<symbol id="att-liked" viewBox="0 0 36 36">
		<title>liked</title>
		<path d="M24.17,6.34H24c-3.25,0-5.68,3.13-6.08,4.62-.52-1.53-2.86-4.62-6.1-4.62h-.21a7.21,7.21,0,0,0-7.09,7.27A7.38,7.38,0,0,0,6,18.15c1.07,1.49,5.28,5.62,5.28,5.62.81.76,2.06,1.84,3,2.65l3.37,2.8a.27.27,0,0,0,.46,0s2.59-2.17,3.32-2.8c.95-.81,2.21-1.9,3-2.68h0l.11-.1a46,46,0,0,0,5.15-5.5,7.45,7.45,0,0,0,1.54-4.54A7.22,7.22,0,0,0,24.17,6.34Z"/>
	</symbol>

	<symbol id="att-link" viewBox="0 0 36 36">
		<title>link</title>
		<path d="M19.55,25.41a.37.37,0,0,1,0,.53L15,30.45a6.39,6.39,0,0,1-9,0L5.55,30a6.37,6.37,0,0,1,0-9l7-7a6.33,6.33,0,0,1,4.51-1.86,6.56,6.56,0,0,1,2,.31l4-4a3.37,3.37,0,0,1,4.76,4.76l-6.47,6.46a3.4,3.4,0,0,1-2.4,1h0a3.31,3.31,0,0,1-2.37-1,.37.37,0,1,1,.53-.52,2.62,2.62,0,0,0,1.85.77h0a2.66,2.66,0,0,0,1.87-.76l6.47-6.46a2.62,2.62,0,0,0-3.7-3.7l-3.79,3.8A6.36,6.36,0,0,1,21.56,14l.48.48a.37.37,0,0,1-.53.53L21,14.49a5.64,5.64,0,0,0-8,0l-7,7a5.63,5.63,0,0,0,0,8l.48.48a5.64,5.64,0,0,0,8,0L19,25.41A.39.39,0,0,1,19.55,25.41ZM30.45,6,30,5.55a6.39,6.39,0,0,0-9,0l-4.58,4.58a.37.37,0,0,0,0,.53.39.39,0,0,0,.53,0l4.58-4.58a5.62,5.62,0,0,1,8,0l.48.48a5.64,5.64,0,0,1,0,8l-7,7a5.64,5.64,0,0,1-8,0L14.49,21a.37.37,0,0,0-.53.53l.48.48a6.6,6.6,0,0,0,2,1.37L12.4,27.5a2.62,2.62,0,0,1-3.7-3.7l6.47-6.47a2.63,2.63,0,0,1,3.7,0,.37.37,0,0,0,.53,0,.39.39,0,0,0,0-.53,3.38,3.38,0,0,0-4.76,0L8.17,23.27a3.38,3.38,0,0,0,0,4.76,3.38,3.38,0,0,0,4.76,0l4.35-4.36A6.23,6.23,0,0,0,19,23.9,6.33,6.33,0,0,0,23.46,22l7-7a6.39,6.39,0,0,0,0-9Z"/>
	</symbol>

	<symbol id="att-muted" viewBox="0 0 36 36">
		<title>muted</title>
	<rect x="-0.04" y="-0.09" width="36" height="36"/>
		<path d="M32.34,30.07,28.8,26.5a4.53,4.53,0,0,0,.54-.27.05.05,0,0,0,0,0,2.33,2.33,0,0,0,.86-1.57,2.59,2.59,0,0,0-.92-2,12.38,12.38,0,0,1-2.23-2.45,12.78,12.78,0,0,1-1.5-3.67,50.91,50.91,0,0,1-.79-6.61c0-.08-.12-1.92-1.38-2.48a6.32,6.32,0,0,0-2.36-.47V5.56a1.81,1.81,0,0,0-1.82-1.82H16.58a1.81,1.81,0,0,0-1.81,1.82V7a6.75,6.75,0,0,0-1.56.33l-.3.09A2.4,2.4,0,0,0,11.46,9L9.34,6.87,5.42,2.92a.38.38,0,0,0-.53,0,.37.37,0,0,0,0,.53L31.8,30.6a.4.4,0,0,0,.27.11.38.38,0,0,0,.27-.64ZM15.52,5.56a1.07,1.07,0,0,1,1.06-1.07h2.66a1.07,1.07,0,0,1,1.07,1.07V6.9l-2.3,0h0c-1.06,0-1.85,0-2.46.06Zm-2.4,2.56.32-.1c.67-.21,1.3-.4,4.56-.41,3.75,0,4.43.19,5.12.49s.91,1.43.93,1.83a51.89,51.89,0,0,0,.8,6.72,13.11,13.11,0,0,0,1.6,3.9,14.41,14.41,0,0,0,1.7,2l.64.58,0,0a1.88,1.88,0,0,1,.67,1.41,1.58,1.58,0,0,1-.54,1,6.82,6.82,0,0,1-.72.33L12.05,9.61C12.2,9.1,12.51,8.29,13.12,8.12Zm8,21.52a3.17,3.17,0,0,1-6.33,0,.38.38,0,0,1,.38-.38.37.37,0,0,1,.37.38,2.42,2.42,0,0,0,4.83,0,.38.38,0,1,1,.75,0Zm4.41-2.55a.36.36,0,0,1-.3.42h0a45.07,45.07,0,0,1-7.27.62h0c-.52,0-8,0-11.34-1.91l0,0a2.33,2.33,0,0,1-.86-1.57,2.59,2.59,0,0,1,.89-2L7,22.3c1.59-1.61,2.85-2.88,3.42-5.8.25-1.24.43-2.5.55-3.58h0a.37.37,0,0,1,.36-.3.38.38,0,0,1,.37.38s0,0,0,.05h0c-.12,1.08-.3,2.35-.55,3.6a10.7,10.7,0,0,1-3.63,6.17l-.34.35a1.89,1.89,0,0,0-.67,1.42,1.58,1.58,0,0,0,.54,1c3.2,1.76,10.61,1.8,11,1.8a45.91,45.91,0,0,0,7.15-.62h0A.37.37,0,0,1,25.57,27.09Z"/>
	</symbol>

	<symbol id="att-regular" viewBox="0 0 36 36">
		<title>regular</title>
		<path d="M29.32,22.62a12.38,12.38,0,0,1-2.23-2.45,12.78,12.78,0,0,1-1.5-3.67,50.91,50.91,0,0,1-.79-6.61c0-.08-.12-1.92-1.38-2.48a6.32,6.32,0,0,0-2.36-.47V5.56a1.81,1.81,0,0,0-1.82-1.82H16.58a1.81,1.81,0,0,0-1.81,1.82V7a6.75,6.75,0,0,0-1.56.33l-.3.09c-1.39.39-1.69,2.47-1.7,2.59a52.64,52.64,0,0,1-.81,6.51C9.83,19.42,8.57,20.69,7,22.3l-.34.34a2.59,2.59,0,0,0-.89,2,2.33,2.33,0,0,0,.86,1.57l0,0C10,28.11,17.47,28.14,18,28.14h0c.52,0,8,0,11.34-1.91a.05.05,0,0,0,0,0,2.33,2.33,0,0,0,.86-1.57A2.59,2.59,0,0,0,29.32,22.62ZM15.52,5.56a1.07,1.07,0,0,1,1.06-1.07h2.66a1.07,1.07,0,0,1,1.07,1.07V6.9c-.62,0-1.37,0-2.3,0h0c-1.06,0-1.85,0-2.46,0ZM29,25.59c-3.2,1.76-10.62,1.8-11,1.8s-7.75,0-10.95-1.8a1.58,1.58,0,0,1-.54-1,1.89,1.89,0,0,1,.67-1.42l.34-.35a10.7,10.7,0,0,0,3.63-6.17A52.82,52.82,0,0,0,12,10.06s.26-1.68,1.17-1.94l.32-.1c.67-.21,1.3-.4,4.56-.4,3.75,0,4.43.18,5.12.48s.91,1.43.93,1.83a51.89,51.89,0,0,0,.8,6.72,13.42,13.42,0,0,0,1.59,3.9,10.27,10.27,0,0,0,1.71,2,34.3,34.3,0,0,1-16.95,1,.37.37,0,1,0-.13.73A39.29,39.29,0,0,0,18,25a31.63,31.63,0,0,0,10.8-1.8l0,0a1.88,1.88,0,0,1,.67,1.41A1.58,1.58,0,0,1,29,25.59ZM18,32.8a3.17,3.17,0,0,1-3.17-3.16.38.38,0,0,1,.38-.38.37.37,0,0,1,.37.38,2.42,2.42,0,0,0,4.83,0,.38.38,0,1,1,.75,0A3.17,3.17,0,0,1,18,32.8Z"/>
	</symbol>

	<symbol id="att-search" viewBox="0 0 36 36">
		<title>search</title>
		<path d="M28,30.26l-7.48-7.49A9.75,9.75,0,0,1,8,7.87H8a9.75,9.75,0,0,1,15,12.4l7.49,7.5A1.76,1.76,0,0,1,28,30.26ZM8.55,8.4A9,9,0,0,0,20.3,22a.38.38,0,0,1,.49,0l7.71,7.72A1,1,0,0,0,30.23,29a1,1,0,0,0-.3-.71l-7.72-7.72a.38.38,0,0,1,0-.49A9,9,0,0,0,8.55,8.4Zm6.37,13.36a.38.38,0,0,0,0-.76,6.24,6.24,0,1,1,4.4-10.64.38.38,0,0,0,.54,0,.39.39,0,0,0,0-.53,7,7,0,1,0-4.94,11.93Z"/>
	</symbol>

	<symbol id="att-unliked" viewBox="0 0 36 36">
		<title>unliked</title>
		<path d="M18.06,30.3h0a.72.72,0,0,1-.47-.25l-3.51-2.91c-1.41-1.21-2.47-2.15-3.16-2.79a81.07,81.07,0,0,1-5.58-5.94,8.14,8.14,0,0,1-1.69-5,7.94,7.94,0,0,1,7.81-8h.22a7.2,7.2,0,0,1,5.24,2.66.37.37,0,0,1,0,.53.37.37,0,0,1-.52,0,6.49,6.49,0,0,0-4.68-2.4h-.22a7.19,7.19,0,0,0-7.06,7.24A7.49,7.49,0,0,0,5.91,18c1.1,1.51,5.46,5.8,5.5,5.84.67.63,1.72,1.56,3.13,2.76l3.52,2.92c.11-.09,2.73-2.28,3.48-2.92.95-.81,2.25-1.94,3.12-2.75l.06-.06.07-.06A48.43,48.43,0,0,0,30.16,18a7.47,7.47,0,0,0,1.54-4.53,7.19,7.19,0,0,0-7.06-7.25h-.21c-3.11,0-5.61,3-6,4.56a.38.38,0,1,1-.73-.19c.49-1.79,3.23-5.12,6.74-5.12h.23a7.94,7.94,0,0,1,7.81,8,8.17,8.17,0,0,1-1.68,5,47.45,47.45,0,0,1-5.44,5.81l-.09.08,0,0c-.88.82-2.22,2-3.2,2.82-.72.62-3.2,2.7-3.46,2.92A.69.69,0,0,1,18.06,30.3Z"/>
	</symbol>

</svg>